<?xml version="1.0" standalone="no"?><!DOCTYPE svg PUBLIC "-//W3C//DTD SVG 1.1//EN" "http://www.w3.org/Graphics/SVG/1.1/DTD/svg11.dtd"><svg class="icon" width="64px" height="64.00px" viewBox="0 0 1024 1024" version="1.1" xmlns="http://www.w3.org/2000/svg"><path d="M512 830.577778c-175.945956 0-318.577778-142.631822-318.577778-318.577778 0-175.945956 142.631822-318.577778 318.577778-318.577778s318.577778 142.631822 318.577778 318.577778C830.577778 687.945956 687.945956 830.577778 512 830.577778zM664.280178 393.557333c9.352533-9.352533 9.352533-24.507733 0-33.837511-9.329778-9.352533-24.484978-9.352533-33.837511 0L512 478.162489l-118.442667-118.442667c-9.352533-9.352533-24.507733-9.352533-33.837511 0-9.352533 9.352533-9.352533 24.507733 0 33.837511l118.442667 118.442667-118.442667 118.442667c-9.352533 9.352533-9.352533 24.507733 0 33.860267 9.329778 9.329778 24.484978 9.329778 33.837511 0l118.442667-118.465422 118.442667 118.465422c9.352533 9.329778 24.507733 9.329778 33.837511 0 9.352533-9.352533 9.352533-24.507733 0-33.860267L545.837511 512 664.280178 393.557333z" fill="#e15e6b"/></svg>